<?xml version="1.0" standalone="no"?>
<!DOCTYPE svg PUBLIC "-//W3C//DTD SVG 20010904//EN"
 "http://www.w3.org/TR/2001/REC-SVG-20010904/DTD/svg10.dtd">
<svg version="1.0" xmlns="http://www.w3.org/2000/svg"
 width="512.000000pt" height="512.000000pt" viewBox="0 0 512.000000 512.000000"
 preserveAspectRatio="xMidYMid meet">
<metadata>
Created by potrace 1.11, written by Peter Selinger 2001-2013
</metadata>
<g transform="translate(0.000000,512.000000) scale(0.100000,-0.100000)"
fill="#000000" stroke="none">
<path d="M2450 4709 c-85 -4 -168 -9 -185 -12 -16 -3 -47 -8 -69 -11 -139 -21
-371 -88 -501 -144 -631 -275 -1094 -826 -1249 -1486 -27 -112 -34 -150 -42
-222 -3 -27 -7 -65 -9 -84 -6 -48 -7 -360 -2 -385 3 -11 8 -45 11 -75 82 -708
543 -1352 1196 -1669 105 -51 295 -125 350 -136 8 -2 44 -11 79 -20 35 -9 76
-18 90 -20 14 -2 37 -6 51 -9 149 -33 526 -40 667 -12 11 3 43 8 70 11 87 12
283 65 388 104 198 75 454 221 593 338 l52 45 0 -89 c1 -99 11 -153 41 -218
54 -115 184 -203 309 -208 120 -6 212 28 293 108 54 53 86 109 102 180 12 56
14 1973 1 2080 -42 359 -149 665 -333 950 -184 284 -414 506 -718 692 -253
155 -617 268 -930 289 -44 3 -84 6 -90 7 -5 1 -80 -1 -165 -4z m345 -774 c498
-94 912 -453 1070 -928 56 -168 69 -252 70 -437 0 -91 -3 -185 -8 -210 -15
-92 -18 -106 -33 -160 -87 -311 -261 -568 -512 -759 -100 -75 -188 -125 -347
-192 -45 -20 -162 -51 -280 -75 -65 -13 -341 -12 -430 2 -609 95 -1091 592
-1173 1209 -18 137 -4 364 32 515 88 370 377 732 722 904 173 86 286 119 504
149 62 9 304 -3 385 -18z"/>
</g>
</svg>
